<?xml version="1.0" encoding="utf-8"?>
<!-- Generator: Adobe Illustrator 25.4.1, SVG Export Plug-In . SVG Version: 6.00 Build 0)  -->
<svg version="1.1" id="Layer_1" xmlns="http://www.w3.org/2000/svg" xmlns:xlink="http://www.w3.org/1999/xlink" x="0px" y="0px"
	 viewBox="0 0 3280.4 2536.2" style="enable-background:new 0 0 3280.4 2536.2;" xml:space="preserve">
<style type="text/css">
	.st0{fill:#FFFFFF;}
	.st1{fill:#FFFFFF;stroke:#FFFFFF;stroke-width:3;stroke-miterlimit:10;}
	.st2{fill:#0088CC;}
	.st3{fill:#8ACEB7;}
	.st4{fill:none;stroke:#000000;stroke-width:9;stroke-linecap:round;stroke-linejoin:round;stroke-miterlimit:10;}
	.st5{fill:#66B8E0;}
	.st6{fill:#99CFEB;}
</style>
<g>
	<g>
		<g>
			<path class="st2" d="M956.7,1611.1c-5-9.9-13.2-20.9-21.5-27.6c-7.2-5.5-20.4-12.7-41.3-12.7c-36.4,0-61.7,22.6-61.7,56.8
				c0,14.3,3.9,22.6,13.8,32c11,11,24.8,17.1,38.6,23.2l35.3,15.4c21.5,9.4,41.3,19.3,56.8,34.7c18.7,18.7,26.5,40.2,26.5,66.7
				c0,67.8-50.2,113-116.3,113c-24.3,0-54.6-5-79.9-29.8c-18.2-17.6-29.2-43-34.2-65l39.7-11c2.8,19.3,11.6,35.8,22,46.9
				c16,16,34.2,20.4,52.9,20.4c50.2,0,73.9-35.8,73.9-72.8c0-16.5-5-30.9-18.2-43c-10.5-9.9-24.8-16.5-44.1-25.4l-33.1-15.4
				c-14.3-6.6-32.5-14.3-49.1-30.3c-16-15.4-25.4-32.5-25.4-60.1c0-56.8,43.5-94.8,103.1-94.8c22.6,0,40.8,4.4,59,16.5
				c14.9,9.9,27.6,24.8,35.8,40.8L956.7,1611.1z"/>
		</g>
		<g>
			<path class="st2" d="M1118.8,1763.8c0,30.9,0,64.5,29.2,89.3c14.9,12.7,40.2,20.9,60.6,20.9c20.4,0,45.8-8.3,60.6-20.9
				c29.2-24.8,29.2-58.4,29.2-89.3v-225.5h40.8v236.5c0,30.9-3.3,60.6-23.2,88.2c-22,30.3-60.6,49.6-107.5,49.6
				s-85.4-19.3-107.5-49.6c-19.8-27.6-23.2-57.3-23.2-88.2v-236.5h40.8V1763.8z"/>
		</g>
		<g>
			<path class="st2" d="M1624.8,1576.9h-149.9V1686h145.5v38.6h-145.5v142.8h149.9v38.6h-190.7v-367.7h190.7V1576.9z"/>
		</g>
		<g>
			<path class="st2" d="M1702,1538.3l97,275.6l115.2-294.4l109.1,294.4l107.5-275.6h45.2l-154.3,387l-108-294.4l-115.8,294.4
				l-141.1-387H1702z"/>
		</g>
		<g>
			<path class="st2" d="M2392.1,1611.1c-5-9.9-13.2-20.9-21.5-27.6c-7.2-5.5-20.4-12.7-41.3-12.7c-36.4,0-61.7,22.6-61.7,56.8
				c0,14.3,3.9,22.6,13.8,32c11,11,24.8,17.1,38.6,23.2l35.3,15.4c21.5,9.4,41.3,19.3,56.8,34.7c18.7,18.7,26.5,40.2,26.5,66.7
				c0,67.8-50.2,113-116.3,113c-24.3,0-54.6-5-79.9-29.8c-18.2-17.6-29.2-43-34.2-65l39.7-11c2.8,19.3,11.6,35.8,22,46.9
				c16,16,34.2,20.4,52.9,20.4c50.2,0,73.9-35.8,73.9-72.8c0-16.5-5-30.9-18.2-43c-10.5-9.9-24.8-16.5-44.1-25.4l-33.1-15.4
				c-14.3-6.6-32.5-14.3-49.1-30.3c-16-15.4-25.4-32.5-25.4-60.1c0-56.8,43.5-94.8,103.1-94.8c22.6,0,40.8,4.4,59,16.5
				c14.9,9.9,27.6,24.8,35.8,40.8L2392.1,1611.1z"/>
		</g>
	</g>
	<g>
		<g>
			<path class="st2" d="M956.7,1611.1c-5-9.9-13.2-20.9-21.5-27.6c-7.2-5.5-20.4-12.7-41.3-12.7c-36.4,0-61.7,22.6-61.7,56.8
				c0,14.3,3.9,22.6,13.8,32c11,11,24.8,17.1,38.6,23.2l35.3,15.4c21.5,9.4,41.3,19.3,56.8,34.7c18.7,18.7,26.5,40.2,26.5,66.7
				c0,67.8-50.2,113-116.3,113c-24.3,0-54.6-5-79.9-29.8c-18.2-17.6-29.2-43-34.2-65l39.7-11c2.8,19.3,11.6,35.8,22,46.9
				c16,16,34.2,20.4,52.9,20.4c50.2,0,73.9-35.8,73.9-72.8c0-16.5-5-30.9-18.2-43c-10.5-9.9-24.8-16.5-44.1-25.4l-33.1-15.4
				c-14.3-6.6-32.5-14.3-49.1-30.3c-16-15.4-25.4-32.5-25.4-60.1c0-56.8,43.5-94.8,103.1-94.8c22.6,0,40.8,4.4,59,16.5
				c14.9,9.9,27.6,24.8,35.8,40.8L956.7,1611.1z"/>
		</g>
		<g>
			<path class="st2" d="M1118.8,1763.8c0,30.9,0,64.5,29.2,89.3c14.9,12.7,40.2,20.9,60.6,20.9c20.4,0,45.8-8.3,60.6-20.9
				c29.2-24.8,29.2-58.4,29.2-89.3v-225.5h40.8v236.5c0,30.9-3.3,60.6-23.2,88.2c-22,30.3-60.6,49.6-107.5,49.6
				s-85.4-19.3-107.5-49.6c-19.8-27.6-23.2-57.3-23.2-88.2v-236.5h40.8V1763.8z"/>
		</g>
		<g>
			<path class="st2" d="M1624.8,1576.9h-149.9V1686h145.5v38.6h-145.5v142.8h149.9v38.6h-190.7v-367.7h190.7V1576.9z"/>
		</g>
		<g>
			<path class="st2" d="M1702,1538.3l97,275.6l115.2-294.4l109.1,294.4l107.5-275.6h45.2l-154.3,387l-108-294.4l-115.8,294.4
				l-141.1-387H1702z"/>
		</g>
		<g>
			<path class="st2" d="M2392.1,1611.1c-5-9.9-13.2-20.9-21.5-27.6c-7.2-5.5-20.4-12.7-41.3-12.7c-36.4,0-61.7,22.6-61.7,56.8
				c0,14.3,3.9,22.6,13.8,32c11,11,24.8,17.1,38.6,23.2l35.3,15.4c21.5,9.4,41.3,19.3,56.8,34.7c18.7,18.7,26.5,40.2,26.5,66.7
				c0,67.8-50.2,113-116.3,113c-24.3,0-54.6-5-79.9-29.8c-18.2-17.6-29.2-43-34.2-65l39.7-11c2.8,19.3,11.6,35.8,22,46.9
				c16,16,34.2,20.4,52.9,20.4c50.2,0,73.9-35.8,73.9-72.8c0-16.5-5-30.9-18.2-43c-10.5-9.9-24.8-16.5-44.1-25.4l-33.1-15.4
				c-14.3-6.6-32.5-14.3-49.1-30.3c-16-15.4-25.4-32.5-25.4-60.1c0-56.8,43.5-94.8,103.1-94.8c22.6,0,40.8,4.4,59,16.5
				c14.9,9.9,27.6,24.8,35.8,40.8L2392.1,1611.1z"/>
		</g>
	</g>
	<g>
		<rect x="1684.9" y="1074.7" class="st3" width="73.3" height="73.3"/>
	</g>
	<g>
		<rect x="1865.6" y="1074.7" class="st3" width="73.3" height="73.3"/>
	</g>
	<g>
		<rect x="1684.9" y="947.6" class="st3" width="73.3" height="73.3"/>
	</g>
	<g>
		<rect x="1865.6" y="947.6" class="st3" width="73.3" height="73.3"/>
	</g>
	<g>
		<rect x="1684.9" y="820.5" class="st3" width="73.3" height="73.3"/>
	</g>
	<g>
		<rect x="1865.6" y="820.5" class="st3" width="73.3" height="73.3"/>
	</g>
	<g>
		<rect x="1684.9" y="693.4" class="st3" width="73.3" height="73.3"/>
	</g>
	<g>
		<rect x="1865.6" y="693.4" class="st3" width="73.3" height="73.3"/>
	</g>
	<g>
		<g>
			<path class="st3" d="M1555.6,849.1c-3,0-5.8-1.8-7-4.7L1467.2,639l-77.6,200.6c-1.5,3.9-5.8,5.8-9.7,4.3
				c-3.9-1.5-5.8-5.8-4.3-9.7l84.5-218.5c1.1-2.9,3.9-4.8,7-4.8c0,0,0,0,0,0c3.1,0,5.8,1.9,7,4.7l88.5,223.2
				c1.5,3.9-0.4,8.2-4.2,9.7C1557.4,849,1556.5,849.1,1555.6,849.1z"/>
		</g>
	</g>
	<g>
		<g>
			<polyline class="st3" points="2245.4,1238.1 2157,1015 2072.5,1233.4 			"/>
		</g>
	</g>
	<g>
		<g>
			<polyline class="st3" points="1373.2,1077.8 1303,900.7 1235.9,1074.1 			"/>
		</g>
	</g>
	<g>
		<g>
			<path class="st3" d="M2367.6,833.6c-3,0-5.8-1.8-7-4.7l-63.1-159.3l-60.1,155.5c-1.5,3.9-5.8,5.8-9.7,4.3
				c-3.9-1.5-5.8-5.8-4.3-9.7l67-173.3c1.1-2.9,3.9-4.8,7-4.8c0,0,0,0,0,0c3.1,0,5.8,1.9,7,4.7l70.2,177.1c1.5,3.9-0.4,8.2-4.2,9.7
				C2369.5,833.5,2368.6,833.6,2367.6,833.6z"/>
		</g>
	</g>
	<g>
		<g>
			<polyline class="st3" points="2159,737.3 2111.6,617.9 2066.4,734.7 			"/>
		</g>
	</g>
	<g>
		<path class="st2" d="M1304.6,1153.3c-5.5,0-10-4.5-10-10v-79.2c0-5.5,4.5-10,10-10s10,4.5,10,10v79.2
			C1314.6,1148.8,1310.1,1153.3,1304.6,1153.3z"/>
	</g>
	<g>
		<path class="st2" d="M2112.7,781.1c-5.5,0-10-4.5-10-10v-52.2c0-5.5,4.5-10,10-10s10,4.5,10,10v52.2
			C2122.7,776.6,2118.2,781.1,2112.7,781.1z"/>
	</g>
	<g>
		<path class="st2" d="M1469.1,949.6c-5.5,0-10-4.5-10-10V816.5c0-5.5,4.5-10,10-10s10,4.5,10,10v123.1
			C1479.1,945.1,1474.6,949.6,1469.1,949.6z"/>
	</g>
	<g>
		<path class="st2" d="M2299,921.9c-5.5,0-10-4.5-10-10V807.5c0-5.5,4.5-10,10-10s10,4.5,10,10v104.3
			C2309,917.4,2304.6,921.9,2299,921.9z"/>
	</g>
	<g>
		<path class="st2" d="M2159,1339.1c-5.5,0-10-4.5-10-10v-112.7c0-5.5,4.5-10,10-10s10,4.5,10,10v112.7
			C2169,1334.6,2164.5,1339.1,2159,1339.1z"/>
	</g>
	<path class="st5" d="M1621.6,1118.1c-66.4,95.7-159.4,147.5-276.5,154c-88.7,4.9-158.8-19.4-159.7-19.7c-3.9-1.4-8.2,0.7-9.6,4.6
		c-1.4,3.9,0.7,8.2,4.6,9.6c2.7,1,60.9,21.3,140.2,21.3c8,0,16.3-0.2,24.8-0.7c54-2.9,104.1-15.6,148.9-37.7
		c49.1-24.2,91.8-59.8,127.2-105.9V1118.1z"/>
	<path class="st6" d="M1621.6,1008.2c-0.8,0.4-1.6,1-2.3,1.7c-9.2,10-18.3,20.7-27,31.6c-82,103.3-176.5,161.2-280.9,172.2
		c-77.4,8.2-133.1-13.8-133.7-14c-3.8-1.6-8.2,0.3-9.8,4.1c-1.6,3.8,0.2,8.2,4,9.8l0.2,0.1c0.2,0.1,0.3,0.1,0.5,0.2
		c5.5,2.1,45.8,16.7,103.9,16.7c11.5,0,23.6-0.6,36.4-1.9c108.6-11.5,206.5-71.3,291.1-177.8c5.7-7.1,11.5-14.1,17.5-20.9V1008.2z"
		/>
	<path class="st6" d="M2484.7,1117.7c-30.1-72.8-78.8-112.1-83-115.4c-52.1-46.2-123.5-86.9-201.2-114.8
		c-67-24-134.8-36.9-201.5-38.4v15c65,1.4,131.1,14,196.5,37.5c76,27.2,145.8,67,196.5,112c0.1,0.1,0.3,0.2,0.4,0.3
		c0.5,0.4,49.6,39.1,78.8,110.1c39.1,95.1,25.9,200-39.1,311.9c-2.1,3.6-0.9,8.2,2.7,10.3c1.2,0.7,2.5,1,3.8,1
		c2.6,0,5.1-1.3,6.5-3.7c37.1-63.9,58-126.8,62.1-187C2510.3,1208.2,2502.8,1161.5,2484.7,1117.7z"/>
	<path class="st5" d="M2308.1,1109.2c-20.7-30.9-50.8-61-86.9-87.2c-68.6-49.7-153.4-81.6-222.2-83.8v15
		c129.2,4.5,329.7,123.9,329.1,261.2c-0.5,107.4-84.3,188.1-230.1,221.6c-4,0.9-6.6,5-5.6,9c0.8,3.5,3.9,5.8,7.3,5.8
		c0.6,0,1.1-0.1,1.7-0.2c82.4-18.9,145.3-51.5,186.8-96.9c35.7-39,54.7-87.2,54.9-139.3C2343.3,1179.5,2331.5,1144.1,2308.1,1109.2z
		"/>
	<g>
		<path class="st3" d="M823.1,777.3v560.8h359.8V777.3H823.1z M926.6,1225.4h-36.7v-98.8h36.7V1225.4z M926.6,1074.4h-36.7v-98.8
			h36.7V1074.4z M926.6,923.3h-36.7v-98.8h36.7V923.3z M1021.4,1225.4h-36.7v-98.8h36.7V1225.4z M1021.4,1074.4h-36.7v-98.8h36.7
			V1074.4z M1021.4,923.3h-36.7v-98.8h36.7V923.3z M1116.2,1225.4h-36.7v-98.8h36.7V1225.4z M1116.2,1074.4h-36.7v-98.8h36.7V1074.4
			z M1116.2,923.3h-36.7v-98.8h36.7V923.3z"/>
	</g>
	<path class="st2" d="M1629.6,624.5h4c-2.2,0-4,1.8-4,4V624.5z M1629.6,1344.1v-4c0,2.2,1.8,4,4,4H1629.6z M1991,1344.1h-4
		c2.2,0,4-1.8,4-4V1344.1z M1991,628.5c0-2.2-1.8-4-4-4h4V628.5z M1995,616.5h-369.4c-2.2,0-4,1.8-4,4v727.6c0,2.2,1.8,4,4,4H1995
		c2.2,0,4-1.8,4-4V620.5C1999,618.2,1997.2,616.5,1995,616.5z M1637.6,632.5H1983v703.6h-345.4V632.5z"/>
</g>
</svg>
